<?xml version="1.0" encoding="utf-8"?>
<!-- Generator: Adobe Illustrator 22.0.1, SVG Export Plug-In . SVG Version: 6.00 Build 0)  -->
<svg version="1.1" id="Ebene_1" xmlns="http://www.w3.org/2000/svg" xmlns:xlink="http://www.w3.org/1999/xlink" x="0px" y="0px"
	 viewBox="0 0 120 50" style="enable-background:new 0 0 120 50;" xml:space="preserve">
<style type="text/css">
	.st0{fill:#FFFFFF;}
</style>
<path class="st0" d="M116.2,29.6c0,0.1-0.1,0.3-0.2,0.4s-0.2,0.2-0.4,0.2h-1.5c-0.1,0-0.3-0.1-0.4-0.2s-0.2-0.2-0.2-0.4L110.2,13
	L107,29.6c0,0.1-0.1,0.3-0.2,0.4c-0.1,0.1-0.2,0.2-0.4,0.2h-1.5c-0.1,0-0.3-0.1-0.4-0.2c-0.1-0.1-0.2-0.2-0.2-0.4l-3.8-18.8
	c0-0.1,0-0.2,0.1-0.3c0.1-0.1,0.2-0.1,0.3-0.1h1.2c0.3,0,0.5,0.1,0.6,0.5l2.9,16.6l3.2-16.6c0.1-0.3,0.3-0.5,0.6-0.5h1.5
	c0.3,0,0.5,0.1,0.5,0.5l3.3,16.6l2.9-16.6c0.1-0.3,0.3-0.5,0.6-0.5h1.2c0.1,0,0.2,0,0.3,0.1c0.1,0.1,0.1,0.2,0.1,0.3L116.2,29.6
	L116.2,29.6z M101,40c-0.1,0-0.2-0.1-0.2-0.2c-0.1-0.1-0.1-0.2-0.1-0.3v-4.9h0.5v4.5c0,0.2,0,0.3,0.1,0.4c0,0.1,0.1,0.2,0.2,0.2h0.2
	l0.1-0.1L102,40c0,0-0.1,0.1-0.2,0.1h-0.3C101.3,40.1,101.1,40.1,101,40z M101.2,44.4c0.3,0,0.5,0.1,0.6,0.2
	c0.2,0.1,0.3,0.3,0.5,0.5c0.1,0.2,0.2,0.4,0.2,0.6c0.1,0.2,0.1,0.5,0.1,0.7s-0.1,0.5-0.1,0.7c-0.1,0.2-0.2,0.5-0.3,0.7
	s-0.3,0.4-0.5,0.5s-0.4,0.2-0.7,0.2h-0.7c-0.1,0-0.2,0-0.3-0.1c-0.1,0-0.2-0.1-0.2-0.1v-5.2h0.5v2.1l0.1-0.1l0.2-0.2
	c0.1-0.1,0.2-0.1,0.3-0.2C101,44.4,101.1,44.4,101.2,44.4L101.2,44.4z M100.6,45.1l-0.2,0.2l-0.1,0.2v2.3h0.7c0.2,0,0.3,0,0.5-0.2
	c0.1-0.1,0.2-0.2,0.3-0.4c0.1-0.2,0.2-0.4,0.2-0.5c0-0.2,0.1-0.4,0.1-0.5c0-0.2,0-0.3-0.1-0.5c0-0.2-0.1-0.3-0.2-0.5l-0.3-0.3
	c-0.1-0.1-0.3-0.2-0.4-0.2c-0.1,0-0.2,0-0.3,0.1C100.8,45,100.7,45,100.6,45.1z M98.9,39.5l-0.1,0.1l-0.2,0.2
	c-0.1,0.1-0.2,0.1-0.3,0.2s-0.3,0.1-0.4,0.1c-0.2,0-0.4,0-0.5-0.1s-0.3-0.2-0.4-0.3c-0.1-0.1-0.2-0.2-0.2-0.4s-0.1-0.3-0.1-0.5v-2.6
	h0.5V39c0,0.1,0.1,0.2,0.1,0.3c0.1,0.1,0.2,0.1,0.2,0.2c0.1,0.1,0.2,0.1,0.3,0.1s0.3,0,0.4-0.1c0.1-0.1,0.2-0.1,0.3-0.2l0.2-0.2
	l0.1-0.2v-2.7h0.5V40h-0.5L98.9,39.5L98.9,39.5z M96.7,28.6c-0.6,0.5-1.3,0.8-2.2,1.1c-0.8,0.3-1.7,0.4-2.6,0.4h-4.5
	c-0.1,0-0.3-0.1-0.4-0.2c-0.1-0.1-0.2-0.2-0.2-0.4V10.7c0-0.1,0.1-0.2,0.2-0.3c0.1-0.1,0.2-0.1,0.4-0.1h4.9c0.8,0,1.5,0.1,2.2,0.3
	c0.7,0.2,1.3,0.5,1.9,0.9c0.5,0.4,1,0.9,1.3,1.6c0.3,0.6,0.5,1.3,0.5,2.2c0,0.5-0.1,1-0.4,1.5c-0.2,0.5-0.5,0.9-0.9,1.3
	s-0.8,0.7-1.2,1s-0.8,0.5-1.2,0.6c0.5,0.1,1.1,0.3,1.6,0.5c0.5,0.3,1,0.6,1.3,1c0.4,0.4,0.7,0.9,0.9,1.4s0.3,1.1,0.3,1.7
	c0,0.9-0.2,1.7-0.5,2.4C97.8,27.6,97.3,28.2,96.7,28.6L96.7,28.6z M94.8,17.9c0.4-0.3,0.6-0.7,0.9-1.1c0.2-0.4,0.3-0.9,0.3-1.4
	c0-1-0.3-1.8-1-2.4s-1.6-0.9-2.7-0.9h-3.2v6.8h3.1c0.5,0,1-0.1,1.4-0.3C94,18.5,94.5,18.3,94.8,17.9z M95.3,21.7c-0.8-0.7-1.8-1-3-1
	h-3.2v7.7h3.2c0.6,0,1.1-0.1,1.6-0.3c0.5-0.2,1-0.5,1.3-0.8c0.4-0.4,0.7-0.8,0.9-1.3s0.3-1.1,0.3-1.6C96.4,23.2,96.1,22.3,95.3,21.7
	L95.3,21.7z M87.4,36.1h0.3c0.1,0,0.2,0.1,0.3,0.1s0.2,0,0.2,0.1l0.1,0.1l-0.2,0.4L88,36.7l-0.2-0.1l-0.2-0.1h-0.2
	c-0.2,0-0.4,0.1-0.5,0.2s-0.2,0.3-0.2,0.5c0,0.1,0,0.2,0.1,0.3l0.3,0.3c0.1,0.1,0.3,0.2,0.5,0.2c0.2,0.1,0.3,0.2,0.4,0.3l0.3,0.3
	c0.1,0.1,0.1,0.2,0.1,0.4s0,0.3-0.1,0.5c-0.1,0.1-0.2,0.3-0.3,0.4s-0.2,0.2-0.4,0.2c-0.2,0.1-0.3,0.1-0.5,0.1h-0.4
	c-0.1,0-0.3,0-0.4-0.1c-0.1,0-0.2-0.1-0.2-0.1l-0.2-0.1l0.2-0.4l0.2,0.1c0.1,0,0.1,0.1,0.2,0.1s0.2,0.1,0.3,0.1h0.3
	c0.2,0,0.4-0.1,0.5-0.2s0.2-0.3,0.2-0.5c0-0.1-0.1-0.2-0.2-0.3l-0.3-0.3c-0.1-0.1-0.3-0.2-0.4-0.2c-0.2-0.1-0.3-0.2-0.4-0.3
	l-0.3-0.3c-0.1-0.1-0.1-0.2-0.1-0.4s0-0.3,0.1-0.5c0.1-0.1,0.2-0.3,0.3-0.4s0.2-0.2,0.4-0.2S87.3,36.1,87.4,36.1L87.4,36.1z
	 M86.7,44.9h-0.8v2.6c0,0.1,0,0.2,0.1,0.3c0,0.1,0.1,0.2,0.2,0.2s0.1,0,0.2-0.1c0.1,0,0.2,0,0.2-0.1l0.2,0.4h-0.7
	c-0.1,0-0.3,0-0.4-0.1c-0.1,0-0.2-0.1-0.2-0.2c-0.1-0.1-0.1-0.2-0.1-0.3c0-0.1-0.1-0.2-0.1-0.3v-2.6h-0.6v-0.4h0.6v-1h0.5v1h0.8v0.6
	H86.7z M84.6,37.5c0-0.1,0-0.2-0.1-0.3s-0.1-0.2-0.1-0.3l-0.2-0.2c-0.1-0.1-0.2-0.1-0.3-0.1s-0.2,0-0.3,0.1s-0.2,0.1-0.3,0.2
	l-0.2,0.2L83,37.3V40h-0.5v-5.3H83v2.1l0.1-0.2l0.2-0.2c0.1-0.1,0.2-0.1,0.3-0.2s0.2-0.1,0.4-0.1s0.4,0,0.5,0.1
	c0.2,0.1,0.3,0.2,0.4,0.3c0.1,0.1,0.2,0.3,0.2,0.4c0.1,0.2,0.1,0.3,0.1,0.5V40h-0.5L84.6,37.5L84.6,37.5z M81.9,30.1h-2
	c-0.2,0-0.4-0.1-0.5-0.2s-0.2-0.3-0.2-0.5v-8.1h-6.8v8.1c0,0.2-0.1,0.4-0.2,0.5c-0.1,0.1-0.3,0.2-0.5,0.2h-2c-0.2,0-0.4-0.1-0.5-0.2
	S69,29.6,69,29.4V11.1c0-0.2,0.1-0.4,0.2-0.5c0.1-0.1,0.3-0.2,0.5-0.2h2c0.2,0,0.4,0,0.5,0.2c0.1,0.1,0.2,0.3,0.2,0.5v7.3h6.8v-7.3
	c0-0.2,0.1-0.4,0.2-0.5c0.1-0.1,0.3-0.2,0.5-0.2h2c0.2,0,0.4,0,0.5,0.2c0.1,0.1,0.2,0.3,0.2,0.5v18.3c0,0.2-0.1,0.4-0.2,0.5
	C82.4,30.1,82.2,30.1,81.9,30.1L81.9,30.1z M68.2,45.7c0-0.1,0-0.2-0.1-0.3c0-0.1-0.1-0.2-0.1-0.3l-0.2-0.2
	c-0.1-0.1-0.2-0.1-0.3-0.1s-0.2,0-0.3,0.1S67,45,66.9,45.1l-0.2,0.2l-0.1,0.2v2.7h-0.5v-3.8h0.5v0.5l0.1-0.1l0.2-0.2
	c0.1-0.1,0.2-0.1,0.3-0.2s0.2-0.1,0.4-0.1s0.4,0,0.5,0.1s0.3,0.2,0.4,0.3c0.1,0.1,0.2,0.3,0.2,0.4c0,0.2,0.1,0.3,0.1,0.5v2.6h-0.5
	L68.2,45.7L68.2,45.7z M65.3,38.7c0,0.2,0.1,0.3,0.2,0.5c0.1,0.1,0.2,0.3,0.3,0.4s0.3,0.2,0.5,0.2c0.1,0,0.2,0,0.3-0.1
	c0.1,0,0.2,0,0.3-0.1c0.1,0,0.2-0.1,0.2-0.1l0.2-0.1l0.2,0.4l-0.2,0.1c-0.1,0-0.1,0.1-0.2,0.1s-0.2,0.1-0.4,0.1h-0.4
	c-0.3,0-0.5-0.1-0.7-0.2s-0.3-0.3-0.5-0.5c-0.1-0.2-0.2-0.4-0.2-0.7c0-0.2-0.1-0.5-0.1-0.7s0-0.4,0.1-0.6l0.3-0.6
	c0.1-0.2,0.3-0.3,0.4-0.5c0.2-0.1,0.4-0.2,0.6-0.2c0.3,0,0.5,0.1,0.6,0.2c0.2,0.1,0.3,0.3,0.4,0.5c0.1,0.2,0.2,0.4,0.2,0.6
	s0.1,0.4,0.1,0.6v0.2h-2.2C65.2,38.3,65.2,38.5,65.3,38.7L65.3,38.7z M67,37.8c0-0.1,0-0.2-0.1-0.4c0-0.1-0.1-0.3-0.2-0.4l-0.3-0.3
	c-0.1-0.1-0.2-0.1-0.4-0.1c-0.1,0-0.3,0-0.4,0.1L65.3,37c-0.1,0.1-0.1,0.2-0.2,0.4c0,0.1-0.1,0.3-0.1,0.4H67z M63.2,27.2
	c-0.8,0.9-1.7,1.7-2.8,2.2s-2.3,0.8-3.7,0.8h-5c-0.2,0-0.4-0.1-0.5-0.2S51,29.7,51,29.5V11.1c0-0.2,0.1-0.4,0.2-0.5
	c0.1-0.1,0.3-0.2,0.5-0.2h4.9c1.3,0,2.5,0.2,3.6,0.7s2.1,1.1,2.8,1.9c0.8,0.8,1.4,1.8,1.8,3c0.4,1.2,0.6,2.5,0.6,3.9
	c0,1.5-0.2,2.9-0.6,4.1C64.5,25.2,63.9,26.3,63.2,27.2L63.2,27.2z M61.6,17.2c-0.2-0.8-0.6-1.5-1.1-2.1s-1-1.1-1.7-1.4
	s-1.4-0.5-2.2-0.5h-2.2v14.3h2c0.8,0,1.6-0.2,2.2-0.6c0.7-0.4,1.2-0.9,1.7-1.6s0.9-1.5,1.1-2.4c0.3-0.9,0.4-1.9,0.4-3
	C62,18.9,61.9,18,61.6,17.2L61.6,17.2z M40.2,30.1H22.1c-0.4,0-0.8-0.4-0.8-0.8v-0.9c0,0.2,0.1,0.3,0.2,0.3c-0.1,0-0.2-0.1-0.2-0.3
	V11.1c0-0.2,0.1-0.4,0.2-0.5c-0.1,0.1-0.1,0.1-0.1,0.2v-0.6c0-0.4,0.4-1.1,0.8-1.5l8.4-8.4C30.8,0.1,31,0,31.1,0s0.2,0.1,0.2,0.3
	v10.1h8.9c0.4,0,0.8,0.3,0.8,0.7v18.2C41,29.7,40.6,30.1,40.2,30.1L40.2,30.1z M40.5,11.1c0-0.2-0.1-0.3-0.3-0.3H22.1
	c-0.2,0-0.3,0.2-0.3,0.3v18.2c0,0.2,0.2,0.3,0.3,0.3h18.1c0.2,0,0.3-0.2,0.3-0.3V11.1L40.5,11.1z M19.7,30.1c0,0.4-0.3,1.1-0.8,1.5
	L10.6,40c-0.2,0.2-0.4,0.3-0.5,0.3S9.9,40.2,9.9,40v-9.9H0.8c-0.4,0-0.8-0.4-0.8-0.8V11.1c0-0.4,0.4-0.7,0.8-0.7H19
	c0.4,0,0.8,0.3,0.8,0.7v18.3c0,0.1,0,0.2-0.1,0.3L19.7,30.1L19.7,30.1z M10.3,30.1v9.6l8.3-8.3c0.4-0.4,0.6-0.9,0.6-1.2V12.3
	l-8.3,8.4c-0.3,0.4-0.6,0.9-0.6,1.1V30.1z M19.5,11.6c-0.1,0-0.3,0.1-0.5,0.3C19.1,11.7,19.3,11.6,19.5,11.6c0.1,0,0.2,0.1,0.2,0.3
	C19.7,11.7,19.6,11.6,19.5,11.6z M53,35.1c0.3,0.1,0.5,0.3,0.7,0.5s0.3,0.4,0.5,0.7c0.1,0.3,0.2,0.6,0.2,1s0,0.7-0.2,1
	c-0.1,0.3-0.3,0.6-0.5,0.8c-0.2,0.2-0.4,0.4-0.7,0.5s-0.5,0.2-0.9,0.2h-1.2v-5H52C52.4,35,52.7,35,53,35.1L53,35.1z M51.6,39.6h0.6
	c0.2,0,0.4-0.1,0.6-0.2c0.2-0.1,0.4-0.3,0.5-0.5s0.3-0.4,0.4-0.7s0.1-0.5,0.1-0.9c0-0.3-0.1-0.6-0.2-0.8c-0.1-0.2-0.2-0.4-0.4-0.6
	c-0.1-0.2-0.3-0.3-0.5-0.4s-0.4-0.2-0.6-0.2h-0.6L51.6,39.6L51.6,39.6z M52.9,43.3c0.2,0.1,0.3,0.1,0.5,0.2c0.1,0.1,0.3,0.2,0.3,0.4
	c0.1,0.2,0.1,0.4,0.1,0.6c0,0.1,0,0.2-0.1,0.4c-0.1,0.1-0.2,0.2-0.2,0.3c-0.1,0.1-0.2,0.2-0.3,0.2c-0.1,0.1-0.2,0.1-0.3,0.2
	c0.1,0,0.3,0.1,0.4,0.2c0.1,0.1,0.2,0.1,0.3,0.2s0.2,0.2,0.2,0.4s0.1,0.3,0.1,0.5s0,0.4-0.1,0.6s-0.2,0.3-0.4,0.4l-0.6,0.3
	c-0.2,0.1-0.4,0.1-0.6,0.1h-1.3v-5h1.4C52.6,43.2,52.8,43.3,52.9,43.3L52.9,43.3z M51.6,47.8h0.8c0.1,0,0.3,0,0.4-0.1
	c0.1-0.1,0.2-0.1,0.3-0.2s0.2-0.2,0.2-0.3c0.1-0.1,0.1-0.2,0.1-0.4c0-0.3-0.1-0.5-0.3-0.7s-0.4-0.2-0.8-0.2h-0.8v1.9L51.6,47.8z
	 M51.6,45.4h0.8c0.1,0,0.2,0,0.4-0.1c0.1,0,0.2-0.1,0.3-0.2s0.2-0.2,0.2-0.3c0.1-0.1,0.1-0.2,0.1-0.4c0-0.3-0.1-0.5-0.3-0.6
	c-0.2-0.2-0.4-0.2-0.7-0.2h-0.8V45.4L51.6,45.4z M55.2,46.5c0.1-0.1,0.3-0.2,0.5-0.2s0.3-0.1,0.5-0.2l0.7-0.2v-0.2
	c0-0.2-0.1-0.4-0.2-0.6c-0.1-0.2-0.3-0.3-0.6-0.3c-0.1,0-0.2,0-0.3,0.1c-0.1,0-0.2,0.1-0.3,0.1s-0.2,0.1-0.2,0.1l-0.2,0.1l-0.2-0.4
	l0.2-0.1c0.1,0,0.2-0.1,0.3-0.1s0.2-0.1,0.3-0.1s0.3-0.1,0.4-0.1c0.4,0,0.7,0.1,0.9,0.3c0.2,0.2,0.3,0.5,0.3,0.9v2.6h-0.5v-0.5
	l-0.1,0.2l-0.2,0.2c-0.1,0.1-0.2,0.1-0.3,0.2s-0.3,0.1-0.4,0.1c-0.3,0-0.6-0.1-0.8-0.3c-0.2-0.2-0.3-0.5-0.3-0.8
	c0-0.2,0.1-0.3,0.2-0.4C54.9,46.7,55,46.6,55.2,46.5L55.2,46.5z M55.4,47.8c0.1,0.1,0.3,0.2,0.5,0.2c0.1,0,0.2,0,0.3-0.1
	c0.1,0,0.2-0.1,0.3-0.2s0.2-0.1,0.2-0.2l0.1-0.2v-0.9l-0.6,0.1c-0.1,0-0.2,0.1-0.3,0.1c-0.1,0.1-0.2,0.1-0.3,0.2L55.4,47
	c-0.1,0.1-0.1,0.2-0.1,0.3C55.2,47.5,55.3,47.6,55.4,47.8z M57.1,39.8c-0.1,0.1-0.2,0.1-0.3,0.2s-0.2,0.1-0.4,0.1s-0.4,0-0.5-0.1
	s-0.3-0.2-0.4-0.3c-0.1-0.1-0.2-0.2-0.2-0.4s-0.1-0.3-0.1-0.5v-2.6h0.5v2.5c0,0.1,0,0.2,0.1,0.3c0,0.1,0.1,0.2,0.1,0.3l0.2,0.2
	c0.1,0.1,0.2,0.1,0.3,0.1s0.2,0,0.3-0.1s0.2-0.1,0.3-0.2l0.2-0.2l0.1-0.2v-2.7h0.5V40h-0.5v-0.5l-0.1,0.1
	C57.3,39.7,57.2,39.7,57.1,39.8L57.1,39.8z M58.8,45c0.1-0.2,0.3-0.3,0.5-0.4s0.4-0.2,0.6-0.2c0.1,0,0.2,0,0.3,0.1
	c0.1,0,0.2,0.1,0.3,0.2l0.2,0.2l0.1,0.2V43h0.5v5.3h-0.5v-0.5L60.7,48l-0.2,0.2c-0.1,0.1-0.2,0.1-0.3,0.2s-0.2,0.1-0.3,0.1
	c-0.3,0-0.5-0.1-0.7-0.2s-0.3-0.3-0.4-0.5c-0.1-0.2-0.2-0.4-0.2-0.7c-0.1-0.2-0.1-0.5-0.1-0.7s0-0.4,0.1-0.7
	C58.5,45.4,58.6,45.2,58.8,45L58.8,45z M59,46.8c0,0.2,0.1,0.4,0.2,0.5c0.1,0.2,0.2,0.3,0.3,0.4s0.3,0.2,0.5,0.2
	c0.1,0,0.2,0,0.3-0.1s0.2-0.1,0.3-0.2l0.2-0.2l0.1-0.2v-1.6l-0.1-0.2c0-0.1-0.1-0.2-0.2-0.2c-0.1-0.1-0.1-0.2-0.2-0.2
	c-0.1-0.1-0.2-0.1-0.3-0.1s-0.3,0-0.4,0.1l-0.3,0.3c-0.1,0.1-0.1,0.3-0.2,0.5c0,0.2-0.1,0.4-0.1,0.6C58.9,46.4,58.9,46.6,59,46.8
	L59,46.8z M61.2,36.5c0.2,0.2,0.3,0.5,0.3,0.9V40H61v-0.5l-0.1,0.2l-0.2,0.2c0,0-0.2,0.2-0.3,0.2c-0.1,0.1-0.2,0.1-0.4,0.1
	c-0.3,0-0.6-0.1-0.8-0.3c-0.2-0.2-0.3-0.5-0.3-0.8c0-0.2,0.1-0.3,0.2-0.4c0.1-0.1,0.2-0.3,0.3-0.4s0.3-0.2,0.5-0.2
	c0.2-0.1,0.3-0.1,0.5-0.2l0.7-0.2v-0.2c0-0.2-0.1-0.4-0.2-0.6c-0.1-0.2-0.3-0.2-0.6-0.2H60c-0.1,0-0.2,0.1-0.3,0.1s-0.2,0.1-0.2,0.1
	L59.3,37l-0.2-0.4l0.2-0.1c0.1,0,0.1-0.1,0.2-0.1s0.2-0.1,0.4-0.1c0.1,0,0.3-0.1,0.4-0.1C60.7,36.1,61,36.2,61.2,36.5L61.2,36.5z
	 M60.4,38.2c-0.1,0-0.2,0.1-0.3,0.1s-0.2,0.1-0.3,0.2l-0.2,0.2c-0.1,0.1-0.1,0.2-0.1,0.3c0,0.2,0.1,0.4,0.2,0.5
	c0.1,0.1,0.3,0.2,0.5,0.2c0.1,0,0.2,0,0.3-0.1c0.1,0,0.2-0.1,0.3-0.2l0.2-0.2l0.1-0.2v-0.9L60.4,38.2z M63.6,40.1
	c-0.2,0-0.3,0-0.4-0.1c-0.1,0-0.2-0.1-0.2-0.2c-0.1-0.1-0.1-0.2-0.1-0.3v-4.9h0.5v4.5c0,0.2,0,0.3,0.1,0.4c0,0.1,0.1,0.2,0.2,0.2
	h0.1l0.1-0.1l0.2,0.4c0,0-0.1,0.1-0.2,0.1H63.6L63.6,40.1z M62.5,45.1c0.1-0.2,0.3-0.4,0.5-0.5s0.4-0.2,0.6-0.2
	c0.3,0,0.5,0.1,0.6,0.2c0.2,0.1,0.3,0.3,0.4,0.5c0.1,0.2,0.2,0.4,0.2,0.6s0.1,0.4,0.1,0.6v0.2h-2.2c0,0.2,0,0.3,0.1,0.5
	c0,0.2,0.1,0.3,0.2,0.5c0.1,0.1,0.2,0.3,0.3,0.4s0.3,0.1,0.4,0.1H64c0.1,0,0.2,0,0.3-0.1c0.1,0,0.1-0.1,0.2-0.1l0.2-0.1l0.2,0.4
	l-0.2,0.1c-0.1,0-0.2,0.1-0.3,0.1s-0.2,0.1-0.3,0.1h-0.4c-0.3,0-0.5-0.1-0.7-0.2s-0.3-0.3-0.5-0.5s-0.2-0.4-0.2-0.7
	c0-0.2-0.1-0.5-0.1-0.7s0-0.4,0.1-0.6C62.3,45.4,62.4,45.2,62.5,45.1L62.5,45.1z M64.4,46.1v-0.4c0-0.2-0.1-0.3-0.2-0.4L63.9,45
	c-0.1-0.1-0.2-0.2-0.4-0.2c-0.1,0-0.3,0.1-0.4,0.2l-0.3,0.3c-0.1,0.1-0.1,0.2-0.2,0.4c0,0.1-0.1,0.3-0.1,0.4H64.4z M71.4,46.2h-1.6
	v-0.5h1.6V46.2z M73.9,35v5h-0.5v-2.4h-2V40h-0.5v-5h0.5v2.2h2V35H73.9z M73.6,47.6l1.1-4.3h0.6l1.1,4.3l0.9-4.3h0.5l-1.2,5H76
	L74.9,44l-1.1,4.3h-0.6l-1.2-5h0.6L73.6,47.6z M77.3,39.9c-0.2,0.1-0.4,0.2-0.7,0.2s-0.5-0.1-0.7-0.2s-0.3-0.3-0.5-0.5
	c-0.1-0.2-0.2-0.4-0.2-0.7c0-0.2-0.1-0.5-0.1-0.7s0-0.4,0.1-0.6l0.3-0.6c0.1-0.2,0.3-0.4,0.5-0.5s0.4-0.2,0.7-0.2s0.5,0.1,0.7,0.2
	s0.3,0.3,0.5,0.5l0.3,0.6c0.1,0.2,0.1,0.4,0.1,0.6s0,0.4-0.1,0.7c-0.1,0.2-0.1,0.5-0.2,0.7C77.6,39.6,77.5,39.7,77.3,39.9L77.3,39.9
	z M77.5,37.6c0-0.2-0.1-0.3-0.2-0.5s-0.2-0.3-0.3-0.4s-0.3-0.2-0.5-0.2s-0.3,0.1-0.4,0.2c-0.1,0.1-0.2,0.3-0.3,0.4s-0.1,0.3-0.2,0.5
	c0,0.2-0.1,0.3-0.1,0.5s0,0.3,0.1,0.5c0,0.2,0.1,0.3,0.1,0.5c0.1,0.2,0.2,0.3,0.3,0.4s0.3,0.2,0.5,0.2s0.3-0.1,0.5-0.2
	c0.1-0.1,0.2-0.3,0.3-0.4c0.1-0.2,0.1-0.3,0.2-0.5L77.5,37.6L77.5,37.6z M79.1,44.5v2.8c0,0.1,0.1,0.2,0.1,0.3l0.2,0.2
	c0.1,0.1,0.2,0.1,0.3,0.1s0.2,0,0.3-0.1s0.2-0.1,0.3-0.2l0.2-0.2l0.1-0.2v-2.7h0.5v3.8h-0.5v-0.5L80.5,48l-0.2,0.2
	c-0.1,0.1-0.2,0.1-0.3,0.2s-0.2,0.1-0.4,0.1s-0.4,0-0.5-0.1s-0.3-0.2-0.4-0.3c-0.1-0.1-0.2-0.2-0.2-0.4s-0.1-0.3-0.1-0.5v-2.6
	L79.1,44.5L79.1,44.5z M80.6,43.1c0.1,0,0.2,0.1,0.3,0.1c0.1,0.1,0.1,0.1,0.1,0.2s0,0.2-0.1,0.2c-0.1,0.1-0.2,0.1-0.3,0.1
	s-0.2,0-0.2-0.1c-0.1-0.1-0.1-0.1-0.1-0.2s0-0.2,0.1-0.2C80.4,43.2,80.5,43.1,80.6,43.1z M79.3,43.1c0.1,0,0.2,0.1,0.2,0.1
	c0.1,0.1,0.1,0.1,0.1,0.2s-0.1,0.2-0.1,0.2c-0.1,0.1-0.1,0.1-0.2,0.1s-0.2,0-0.2-0.1C79,43.5,79,43.5,79,43.4s0-0.2,0.1-0.2
	C79.1,43.2,79.2,43.1,79.3,43.1z M80.8,40.1h-0.4c-0.3,0-0.5-0.1-0.7-0.2s-0.3-0.3-0.5-0.5C79.1,39.2,79,39,79,38.7
	c-0.1-0.2-0.1-0.5-0.1-0.8c0-0.2,0.1-0.4,0.1-0.6l0.3-0.6c0.1-0.2,0.3-0.3,0.5-0.5c0.2-0.1,0.4-0.2,0.6-0.2h0.3
	c0.1,0,0.2,0.1,0.3,0.1l0.2,0.1l0.1,0.1l-0.2,0.4L81,36.6l-0.2-0.1l-0.2-0.1h-0.2c-0.2,0-0.3,0.1-0.4,0.2l-0.3,0.3
	c-0.1,0.1-0.1,0.3-0.2,0.5c0,0.2-0.1,0.3-0.1,0.5s0,0.4,0.1,0.6c0,0.2,0.1,0.4,0.2,0.5c0.1,0.2,0.2,0.3,0.3,0.4s0.3,0.2,0.5,0.2h0.2
	c0.1,0,0.2,0,0.2-0.1l0.2-0.1l0.1-0.1l0.2,0.4l-0.2,0.1c-0.1,0-0.1,0.1-0.2,0.1C81,40,80.9,40,80.8,40.1L80.8,40.1z M83,45l0.1-0.1
	l0.2-0.2c0.1-0.1,0.2-0.1,0.3-0.2s0.2-0.1,0.4-0.1h0.2l0.2,0.1L84.2,45L84,44.9h-0.2c-0.1,0-0.2,0-0.3,0.1s-0.2,0.1-0.2,0.2
	l-0.2,0.2L83,45.6v2.7h-0.5v-3.8H83V45L83,45z M88,43.5h0.5v1h0.7v0.4h-0.7v2.6c0,0.1,0,0.2,0.1,0.3c0,0.1,0.1,0.2,0.2,0.2
	s0.2,0,0.2-0.1c0.1,0,0.1,0,0.2-0.1l0.2,0.4h-0.7c-0.1,0-0.3,0-0.4-0.1c-0.1,0-0.2-0.1-0.2-0.2C88,47.8,88,47.7,88,47.6v-2.9h-0.6
	v-0.4H88V43.5z M89.8,36.8c0.1-0.2,0.3-0.3,0.5-0.5c0.2-0.1,0.4-0.2,0.6-0.2h0.3c0.1,0,0.2,0.1,0.3,0.1l0.2,0.1l0.1,0.1l-0.2,0.4
	l-0.1-0.1l-0.2-0.1l-0.2-0.1h-0.2c-0.2,0-0.3,0.1-0.4,0.2L90.2,37c-0.1,0.1-0.1,0.3-0.2,0.5c0,0.2-0.1,0.3-0.1,0.5s0,0.4,0.1,0.6
	c0,0.2,0.1,0.4,0.2,0.5c0.1,0.2,0.2,0.3,0.3,0.4s0.3,0.2,0.4,0.2h0.3c0.1,0,0.2,0,0.2-0.1l0.2-0.1l0.2-0.1l0.2,0.4l-0.1,0.1
	c-0.1,0-0.1,0.1-0.2,0.1s-0.2,0.1-0.3,0.1H91c-0.3,0-0.5-0.1-0.7-0.2s-0.3-0.3-0.5-0.5c-0.1-0.2-0.2-0.4-0.2-0.7
	c-0.1-0.2-0.1-0.5-0.1-0.8c0-0.2,0.1-0.4,0.1-0.6S89.6,36.9,89.8,36.8L89.8,36.8z M90.4,45.1c0.1-0.2,0.3-0.4,0.4-0.5
	c0.2-0.1,0.4-0.2,0.6-0.2c0.3,0,0.5,0.1,0.6,0.2c0.2,0.1,0.3,0.3,0.4,0.5c0.1,0.2,0.2,0.4,0.2,0.6s0.1,0.4,0.1,0.6v0.2h-2.2
	c0,0.2,0,0.3,0.1,0.5c0,0.2,0.1,0.3,0.2,0.5c0.1,0.1,0.2,0.3,0.3,0.4s0.3,0.1,0.5,0.1h0.3c0.1,0,0.2,0,0.3-0.1
	c0.1,0,0.2-0.1,0.2-0.1l0.2-0.1l0.2,0.4l-0.2,0.1c-0.1,0-0.1,0.1-0.2,0.1s-0.2,0.1-0.4,0.1h-0.4c-0.3,0-0.5-0.1-0.7-0.2
	s-0.3-0.3-0.5-0.5s-0.2-0.4-0.2-0.7c0-0.2-0.1-0.5-0.1-0.7s0-0.4,0.1-0.6C90.2,45.4,90.3,45.2,90.4,45.1L90.4,45.1z M92.3,46.1
	c0-0.1,0-0.2-0.1-0.4c0-0.2-0.1-0.3-0.2-0.4L91.7,45c-0.1-0.1-0.2-0.2-0.4-0.2c-0.1,0-0.3,0.1-0.4,0.2l-0.3,0.3
	c-0.1,0.1-0.1,0.2-0.2,0.4c0,0.1-0.1,0.3-0.1,0.4H92.3z M93.3,36.8l0.1-0.2l0.2-0.2c0.1-0.1,0.2-0.1,0.3-0.2s0.2-0.1,0.4-0.1
	s0.4,0,0.5,0.1s0.3,0.2,0.4,0.3c0.1,0.1,0.2,0.3,0.2,0.4c0.1,0.2,0.1,0.3,0.1,0.5V40H95v-2.5c0-0.1,0-0.2-0.1-0.3
	c0-0.1-0.1-0.2-0.1-0.3l-0.2-0.2c-0.1-0.1-0.2-0.1-0.3-0.1s-0.3,0-0.4,0.1c-0.1,0.1-0.2,0.1-0.3,0.2l-0.2,0.2l-0.1,0.2V40h-0.5v-5.3
	h0.5L93.3,36.8L93.3,36.8z M94.4,45l0.1-0.1l0.2-0.2c0.1-0.1,0.2-0.1,0.3-0.2s0.2-0.1,0.4-0.1s0.3,0,0.5,0.1c0.1,0,0.2,0.1,0.3,0.2
	l0.2,0.2l0.1,0.2l0.1-0.1l0.2-0.2c0.1-0.1,0.2-0.1,0.3-0.2s0.2-0.1,0.4-0.1s0.4,0,0.5,0.1s0.3,0.2,0.4,0.3c0.1,0.1,0.1,0.3,0.2,0.4
	c0,0.2,0.1,0.3,0.1,0.5v2.6h-0.5v-2.8c0-0.1-0.1-0.2-0.1-0.3c-0.1-0.1-0.1-0.2-0.2-0.2C97.8,45,97.7,45,97.6,45s-0.2,0-0.3,0.1
	c-0.1,0-0.2,0.1-0.3,0.2l-0.2,0.2l-0.1,0.2v2.8h-0.5v-2.8c0-0.1-0.1-0.2-0.1-0.3c-0.1-0.1-0.1-0.2-0.2-0.2c-0.1-0.1-0.2-0.1-0.3-0.1
	s-0.2,0-0.3,0.1s-0.2,0.1-0.3,0.2l-0.2,0.2l-0.1,0.2v2.7h-0.5v-3.8h0.5V45L94.4,45z M102.4,38c0-0.2,0-0.4,0.1-0.6l0.3-0.6
	c0.1-0.2,0.3-0.3,0.4-0.5c0.2-0.1,0.4-0.2,0.6-0.2c0.3,0,0.5,0.1,0.6,0.2c0.2,0.1,0.3,0.3,0.4,0.5c0.1,0.2,0.2,0.4,0.2,0.6
	s0.1,0.4,0.1,0.6v0.2h-2.2c0,0.1,0,0.3,0.1,0.5c0,0.2,0.1,0.3,0.2,0.5c0.1,0.1,0.2,0.3,0.3,0.4s0.3,0.2,0.5,0.2c0.1,0,0.2,0,0.3-0.1
	c0.1,0,0.2,0,0.3-0.1c0.1,0,0.1-0.1,0.2-0.1l0.2-0.1l0.2,0.4l-0.2,0.1c-0.1,0-0.1,0.1-0.2,0.1s-0.2,0.1-0.4,0.1H104
	c-0.3,0-0.5-0.1-0.7-0.2s-0.3-0.3-0.5-0.5c-0.1-0.2-0.2-0.4-0.2-0.7C102.5,38.5,102.4,38.2,102.4,38L102.4,38z M104.7,37.8
	c0-0.1,0-0.2-0.1-0.4c0-0.1-0.1-0.3-0.2-0.4c-0.1-0.1-0.1-0.2-0.2-0.3c-0.1-0.1-0.2-0.1-0.4-0.1c-0.1,0-0.3,0-0.4,0.1l-0.3,0.3
	c-0.1,0.1-0.1,0.2-0.2,0.4c0,0.1-0.1,0.3-0.1,0.4H104.7z M103.8,45.1c0.1-0.2,0.3-0.4,0.4-0.5c0.2-0.1,0.4-0.2,0.6-0.2
	c0.3,0,0.5,0.1,0.7,0.2s0.3,0.3,0.4,0.5c0.1,0.2,0.2,0.4,0.2,0.6s0.1,0.4,0.1,0.6v0.2H104c0,0.2,0,0.3,0.1,0.5
	c0,0.2,0.1,0.3,0.2,0.5c0.1,0.1,0.2,0.3,0.3,0.4s0.3,0.1,0.5,0.1h0.3c0.1,0,0.2,0,0.3-0.1c0.1,0,0.1-0.1,0.2-0.1l0.2-0.1l0.2,0.4
	l-0.2,0.1c-0.1,0-0.1,0.1-0.2,0.1s-0.2,0.1-0.4,0.1h-0.4c-0.3,0-0.5-0.1-0.7-0.2s-0.3-0.3-0.5-0.5c-0.1-0.2-0.2-0.4-0.2-0.7
	c0-0.2-0.1-0.5-0.1-0.7s0-0.4,0.1-0.6C103.6,45.4,103.7,45.2,103.8,45.1L103.8,45.1z M105.7,46.1c0-0.1,0-0.2-0.1-0.4
	c0-0.2-0.1-0.3-0.2-0.4c-0.1-0.1-0.1-0.2-0.2-0.3c-0.1-0.1-0.2-0.2-0.4-0.2c-0.1,0-0.3,0.1-0.4,0.2l-0.3,0.3
	c-0.1,0.1-0.1,0.2-0.2,0.4c0,0.1-0.1,0.3-0.1,0.4H105.7z M107.7,45l0.1-0.1l0.2-0.2l0.2-0.2c0.1-0.1,0.2-0.1,0.4-0.1h0.2l0.2,0.1
	l-0.2,0.5l-0.1-0.1h-0.2c-0.1,0-0.2,0-0.3,0.1s-0.2,0.1-0.2,0.2l-0.2,0.2l-0.1,0.2v2.7h-0.5v-3.8h0.5L107.7,45L107.7,45z
	 M109.8,48.3c0.1-0.1,0.2-0.1,0.3-0.2c0.1,0,0.2-0.1,0.3-0.1h-0.2l-0.2-0.1l-0.2-0.2c0-0.1-0.1-0.2-0.1-0.2l0.1-0.2l0.1-0.2l0.2-0.1
	h0.2c-0.1,0-0.2-0.1-0.2-0.2c-0.1-0.1-0.2-0.1-0.3-0.2c-0.1-0.1-0.2-0.2-0.2-0.4c-0.1-0.2-0.1-0.3-0.1-0.5s0-0.3,0.1-0.5
	s0.2-0.3,0.3-0.4c0.1-0.1,0.3-0.2,0.4-0.3c0.2-0.1,0.3-0.1,0.5-0.1h0.3c0.1,0,0.2,0,0.2,0.1h1.1v0.4h-0.6l0.1,0.1l0.1,0.2
	c0,0.1,0.1,0.1,0.1,0.2v0.3c0,0.2,0,0.3-0.1,0.5s-0.2,0.3-0.3,0.5c-0.1,0.1-0.3,0.2-0.4,0.3c-0.2,0.1-0.3,0.1-0.5,0.1h-0.2l-0.2,0.1
	l-0.2,0.1l-0.1,0.2c0,0.1,0.1,0.2,0.2,0.2c0.1,0.1,0.2,0.1,0.4,0.1s0.4,0,0.6,0.1c0.2,0,0.3,0.1,0.5,0.2c0.1,0.1,0.3,0.2,0.4,0.3
	c0.1,0.1,0.1,0.3,0.1,0.5c0,0.1,0,0.3-0.1,0.4s-0.2,0.3-0.3,0.4c-0.1,0.1-0.3,0.2-0.5,0.3c-0.2,0.1-0.4,0.1-0.6,0.1s-0.4,0-0.6-0.1
	s-0.3-0.1-0.5-0.2c-0.1-0.1-0.3-0.2-0.3-0.3c-0.1-0.1-0.1-0.3-0.1-0.4s0-0.3,0.1-0.4C109.6,48.4,109.7,48.3,109.8,48.3L109.8,48.3z
	 M110.5,46.6c0.1,0.1,0.2,0.1,0.4,0.1c0.1,0,0.3,0,0.4-0.1s0.2-0.1,0.2-0.2c0.1-0.1,0.1-0.2,0.1-0.3c0-0.1,0.1-0.2,0.1-0.3
	c0-0.3-0.1-0.5-0.2-0.7s-0.3-0.2-0.6-0.2c-0.1,0-0.2,0-0.3,0.1c-0.1,0-0.2,0.1-0.2,0.2c-0.1,0.1-0.1,0.2-0.2,0.3
	c0,0.1-0.1,0.2-0.1,0.3v0.4c0,0.1,0.1,0.2,0.2,0.3C110.3,46.5,110.4,46.6,110.5,46.6L110.5,46.6z M110,49.1c0,0.1,0.1,0.2,0.2,0.2
	c0.1,0.1,0.2,0.1,0.3,0.2c0.1,0,0.3,0.1,0.4,0.1c0.2,0,0.3,0,0.4-0.1c0.1,0,0.2-0.1,0.3-0.2l0.2-0.2c0.1-0.1,0.1-0.2,0.1-0.3
	c0-0.2-0.1-0.4-0.3-0.5c-0.2-0.1-0.5-0.2-0.8-0.2c-0.1,0-0.2,0-0.4,0.1c-0.1,0-0.2,0.1-0.3,0.1c-0.1,0.1-0.2,0.1-0.2,0.2
	c-0.1,0.1-0.1,0.2-0.1,0.3C109.9,49,109.9,49.1,110,49.1z"/>
</svg>
